{"title":"The Unclouded Day","uid":15421072,"size":226910570,"categoryP":"video","categoryS":"other","magnet":"?xt=urn:btih:4ddf7cf7f10b162e51a51c1d24a70703549184f2&amp;dn=The+Unclouded+Day&amp;tr=udp%3A%2F%2Ftracker.leechers-paradise.org%3A6969&amp;tr=udp%3A%2F%2Fzer0day.ch%3A1337&amp;tr=udp%3A%2F%2Fopen.demonii.com%3A1337&amp;tr=udp%3A%2F%2Ftracker.coppersurfer.tk%3A6969&amp;tr=udp%3A%2F%2Fexodus.desync.com%3A6969","seeders":0,"leechers":0,"uploader":"davidrpeet","files":1,"time":1469638835,"description":"The Unclouded Day - Todd Parks\r\nWeekly sermons from CrossRoads Church in Decatur, Texas\r\n\r\n\r\nGeneral\r\nComplete name                            : 20160717 - The Unclouded Day - Todd Parks.mp4\r\nFormat                                   : MPEG-4\r\nFormat profile                           : Base Media / Version 2\r\nCodec ID                                 : mp42\r\nFile size                                : 216 MiB\r\nDuration                                 : 31mn 56s\r\nOverall bit rate mode                    : Variable\r\nOverall bit rate                         : 947 Kbps\r\nMovie name                               : The Unclouded Day\r\nAlbum                                    : CrossRoads Church \r\nAlbum/Performer                          : Darren Embree\r\nPerformer                                : Todd Parks\r\nComposer                                 : http://crossroadspeople.com/\r\nGenre                                    : Speech\r\nRecorded date                            : 2016\r\nEncoded date                             : UTC 2016-07-18 23:15:45\r\nTagged date                              : UTC 2016-07-18 23:15:45\r\nCover                                    : Yes\r\nComment                                  : CrossRoads To Go Video Podcasts\r\n\r\nVideo\r\nID                                       : 1\r\nFormat                                   : AVC\r\nFormat/Info                              : Advanced Video Codec\r\nFormat profile                           :   \r\nFormat settings, CABAC                   : Yes\r\nFormat settings, ReFrames                : 4 frames\r\nCodec ID                                 : avc1\r\nCodec ID/Info                            : Advanced Video Coding\r\nDuration                                 : 31mn 56s\r\nBit rate                                 : 686 Kbps\r\nWidth                                    : 720 pixels\r\nHeight                                   : 540 pixels\r\nDisplay aspect ratio                     : 4:3\r\nFrame rate mode                          : Constant\r\nFrame rate                               : 29.970 fps\r\nColor space                              : YUV\r\nChroma subsampling                       : 4:2:0\r\nBit depth                                : 8 bits\r\nScan type                                : Progressive\r\nBits/(Pixel*Frame)                       : 0.059\r\nStream size                              : 157 MiB (72%)\r\nWriting library                          : x264 core 148 r11 3b70645\r\nEncoded date                             : UTC 2016-07-18 23:15:45\r\nTagged date                              : UTC 2016-07-18 23:15:45\r\nColor primaries                          : BT.601 NTSC\r\nTransfer characteristics                 : BT.470 System B, BT.470 System G\r\nMatrix coefficients                      : BT.601\r\n\r\nAudio\r\nID                                       : 2\r\nFormat                                   : AAC\r\nFormat/Info                              : Advanced Audio Codec\r\nFormat profile                           : LC\r\nCodec ID                                 : 40\r\nDuration                                 : 31mn 56s\r\nBit rate mode                            : Variable\r\nBit rate                                 : 256 Kbps\r\nChannel(s)                               : 2 channels\r\nChannel positions                        : Front: L R\r\nSampling rate                            : 48.0 KHz\r\nCompression mode                         : Lossy\r\nStream size                              : 58.5 MiB (27%)\r\nEncoded date                             : UTC 2016-07-18 23:15:45\r\nTagged date                              : UTC 2016-07-18 23:15:45","torrent":{"xt":"urn:btih:4ddf7cf7f10b162e51a51c1d24a70703549184f2","amp;dn":"The+Unclouded+Day","amp;tr":["udp%3A%2F%2Ftracker.leechers-paradise.org%3A6969","udp%3A%2F%2Fzer0day.ch%3A1337","udp%3A%2F%2Fopen.demonii.com%3A1337","udp%3A%2F%2Ftracker.coppersurfer.tk%3A6969","udp%3A%2F%2Fexodus.desync.com%3A6969"],"infoHash":"4ddf7cf7f10b162e51a51c1d24a70703549184f2","infoHashBuffer":{"type":"Buffer","data":[77,223,124,247,241,11,22,46,81,165,28,29,36,167,7,3,84,145,132,242]},"announce":[],"urlList":[]}}